<svg xmlns="http://www.w3.org/2000/svg" width="24" height="24" fill="#25D366" viewBox="0 0 24 24">
  <path d="M20.52 3.48A11.86 11.86 0 0 0 12.05 0C5.5 0 .16 5.34.16 11.89c0 2.1.55 4.15 1.6 5.96L0 24l6.35-1.66a11.82 11.82 0 0 0 5.7 1.45h.01c6.55 0 11.89-5.34 11.89-11.89 0-3.18-1.24-6.17-3.43-8.42zM12.06 21.3h-.01a9.4 9.4 0 0 1-4.78-1.3l-.34-.2-3.77.99 1-3.67-.22-.38a9.38 9.38 0 0 1-1.44-5.01c0-5.19 4.22-9.41 9.41-9.41a9.35 9.35 0 0 1 6.66 2.76 9.34 9.34 0 0 1 2.75 6.65c0 5.19-4.22 9.41-9.41 9.41zm5.16-7.06c-.28-.14-1.64-.81-1.9-.9-.25-.09-.44-.14-.62.14-.18.28-.71.9-.87 1.08-.16.19-.32.21-.6.07-.28-.14-1.17-.43-2.22-1.37-.82-.73-1.37-1.63-1.53-1.91-.16-.28-.02-.43.12-.57.13-.13.28-.32.42-.48.14-.16.18-.28.28-.46.09-.19.05-.35-.02-.49-.07-.14-.62-1.5-.85-2.06-.22-.53-.45-.46-.62-.47h-.53c-.19 0-.49.07-.75.35-.25.28-.98.96-.98 2.34 0 1.37 1 2.7 1.14 2.89.14.19 1.97 3.01 4.78 4.22.67.29 1.2.46 1.61.59.67.21 1.28.18 1.76.11.54-.08 1.64-.67 1.87-1.32.23-.65.23-1.21.16-1.32-.07-.12-.25-.19-.53-.33z"></path>
</svg>